<?xml version="1.0" encoding="UTF-8"?>
<!DOCTYPE svg PUBLIC "-//W3C//DTD SVG 1.0//EN" "http://www.w3.org/TR/2001/REC-SVG-20010904/DTD/svg10.dtd">
<!-- Creator: CorelDRAW 2021 (64-Bit) -->
<svg xmlns="http://www.w3.org/2000/svg" xml:space="preserve" width="207.776mm" height="207.777mm" version="1.0" style="shape-rendering:geometricPrecision; text-rendering:geometricPrecision; image-rendering:optimizeQuality; fill-rule:evenodd; clip-rule:evenodd"
viewBox="0 0 20776.56 20776.62"
 xmlns:xlink="http://www.w3.org/1999/xlink"
 xmlns:xodm="http://www.corel.com/coreldraw/odm/2003">
 <defs>
  <style type="text/css">
   <![CDATA[
    .fil0 {fill:none}
    .fil1 {fill:white}
   ]]>
  </style>
 </defs>
 <g id="Layer_x0020_1">
  <metadata id="CorelCorpID_0Corel-Layer"/>
  <rect class="fil0" y="-0.03" width="20776.56" height="20776.62"/>
  <path class="fil1" d="M10388.33 4626.39c4098.03,0 7420.18,3322.15 7420.18,7420.18 0,696.68 -105.36,1368.54 -275.56,2010.26 -185.06,697.87 -684.3,1379.25 -1341.38,1751.6 -828.27,469.4 -1896.42,486.35 -2776.68,-144.22 -612.43,-438.72 -1024.98,-1164.05 -1038.42,-2047.09 -13.33,-878.98 404.23,-1643.16 1229.58,-2227.34 884.12,-625.87 -680.09,-1055.27 -2400.02,-629.04 -2039.26,505.33 -3689.4,2438.53 -4602.28,3275.56 -1394.71,1278.88 -3635.67,358.43 -3635.67,-1989.74 0,-4098.03 3322.15,-7420.18 7420.24,-7420.18z"/>
 </g>
</svg>
